<svg xmlns="http://www.w3.org/2000/svg" viewBox="0 0 64 64">
  <defs>
    <linearGradient id="g" x1="8" y1="8" x2="56" y2="56" gradientUnits="userSpaceOnUse">
      <stop stop-color="#ff7a2f"/>
      <stop offset="1" stop-color="#e52b32"/>
    </linearGradient>
  </defs>
  <rect x="5" y="5" width="54" height="54" rx="15" fill="url(#g)"/>
  <path d="M47 27.5c-1.7-6.2-8.6-9.7-15.5-7.8-6.9 1.9-11.2 8.4-9.5 14.6 1.7 6.2 8.6 9.7 15.5 7.8 6.9-1.9 11.2-8.4 9.5-14.6Z" fill="#fff"/>
  <path d="M37.4 31.7c-.8-2.9-4-4.5-7.2-3.6-3.2.9-5.2 3.9-4.4 6.8.8 2.9 4 4.5 7.2 3.6 3.2-.9 5.2-3.9 4.4-6.8Z" fill="#ef3b32"/>
  <circle cx="31.6" cy="33.2" r="2.2" fill="#fff"/>
  <path d="M43.7 18.1c4.8.7 8.1 5.3 7.4 10.1" fill="none" stroke="#fff" stroke-width="3.4" stroke-linecap="round"/>
  <path d="M44.8 12.6c7.6 1.1 12.9 8.2 11.8 15.8" fill="none" stroke="#fff" stroke-width="3.4" stroke-linecap="round"/>
</svg>
