<svg xmlns="http://www.w3.org/2000/svg" viewBox="0 0 128 128"><rect width="120" height="120" x="4" y="4" fill="#f7fafd" rx="28"/><path fill="#fff" stroke="#283540" stroke-linejoin="round" stroke-width="3" d="M20 31h75c6 0 10 4 10 10v51c0 6-4 10-10 10H20Z"/><path fill="#dceeff" stroke="#283540" stroke-linejoin="round" stroke-width="3" d="M95 31h9c6 0 10 4 10 10v51c0 6-4 10-10 10h-9Z"/><circle cx="84" cy="47" r="9" fill="#ffe27a" stroke="#283540" stroke-width="3"/><path fill="#a9d8f5" stroke="#283540" stroke-linejoin="round" stroke-width="3" d="m24 87 24-24 16 14 13-12 27 22v8H24Z"/><path fill="#dceeff" d="m24 87 24-24 7 6-25 25Z"/></svg>